# xmcd
#
# Track frame offsets: 
#        150
#        6999
#        20706
#        35313
#        45955
#        53277
#        67149
#        77174
#        91198
#        104617
#        121417
#        128519
#        143881
#        153656
#        162719
#        176216
#
# Disc length: 2520 seconds
#
# Revision: 1
# Processed by: cddbd v1.5.2PL0 Copyright (c) Steve Scherf et al.
# Submitted via: ExactAudioCopyFreeDBPlugin 1.0
#
DISCID=d509d610
DTITLE=Rosemary Clooney - Our Love Affair
DYEAR=1960
DGENRE=Country
TTITLE0=This Can't Be Love
TTITLE1=Too Much Conversation
TTITLE2=My Old Flame
TTITLE3=As Long As I Live
TTITLE4=If This Isn't Love
TTITLE5=I'm Only Ambitious For You
TTITLE6=Our Love Affair
TTITLE7=Thrill Me
TTITLE8=You Make Me Feel So Young
TTITLE9=I'll Never Forget You
TTITLE10=Shine
TTITLE11=All the Pretty Little Horses
TTITLE12=Love and Nuts and Noodles
TTITLE13=Come-On-A My House
TTITLE14=Half As Much
TTITLE15=Data track
EXTD=Flashback Cat: FB02206 Bar: 9326314004000
EXTT0=
EXTT1=
EXTT2=
EXTT3=
EXTT4=
EXTT5=
EXTT6=
EXTT7=
EXTT8=
EXTT9=
EXTT10=
EXTT11=
EXTT12=
EXTT13=
EXTT14=
EXTT15=
PLAYORDER=
